<?xml version="1.0" encoding="UTF-8"?>
<svg version="1.1" xmlns="http://www.w3.org/2000/svg" width="218" height="231">
<path d="M0 0 C71.94 0 143.88 0 218 0 C218 76.23 218 152.46 218 231 C146.06 231 74.12 231 0 231 C0 154.77 0 78.54 0 0 Z " fill="#FDFDFD" transform="translate(0,0)"/>
<path d="M0 0 C17.0034122 -0.02320628 34.00681803 -0.04102389 51.01024246 -0.05181217 C58.90624788 -0.05695578 66.80224323 -0.06396139 74.69824219 -0.07543945 C81.58502419 -0.08544564 88.47179891 -0.09186749 95.35858798 -0.09408849 C99.00086034 -0.09538557 102.64311186 -0.09840731 106.2853775 -0.10573006 C110.36376345 -0.11386216 114.44211377 -0.11398734 118.52050781 -0.11352539 C119.71166199 -0.11712067 120.90281616 -0.12071594 122.13006592 -0.12442017 C144.70016186 -0.09689418 170.84641797 3.79939475 188 20 C198.58850293 31.92629766 201.51421545 45.71427251 201.24609375 61.296875 C200.36920108 74.49202183 195.035515 88.08383091 185 97 C175.44657685 104.22553207 164.96749718 108.51269601 153.375 111.1875 C152.7142749 111.3424292 152.0535498 111.4973584 151.37280273 111.65698242 C134.49959285 115.26159767 117.54225775 115.25833304 100.375 115.125 C98.09635814 115.11494049 95.81771194 115.10581994 93.5390625 115.09765625 C88.02594479 115.07590048 82.51299356 115.04266289 77 115 C77.06131438 123.24117842 77.13849409 131.48199285 77.23571491 139.72281837 C77.28036877 143.54972843 77.31963555 147.37653325 77.34643555 151.20361328 C77.37251875 154.89965759 77.41295576 158.59529587 77.46318626 162.2910881 C77.47982125 163.69836741 77.49135648 165.10571689 77.49761391 166.5130806 C77.50729081 168.49011701 77.53707786 170.46702359 77.56762695 172.44384766 C77.57873001 173.56747711 77.58983307 174.69110657 77.60127258 175.8487854 C78.18230771 180.44081065 79.58230628 183.88451828 83.25390625 186.7734375 C86.46050278 188.20568687 89.49262647 188.94425409 92.9375 189.625 C94.12214844 189.86476562 95.30679688 190.10453125 96.52734375 190.3515625 C99.67965617 190.94018327 102.83447348 191.48771632 106 192 C106.02685095 194.47923801 106.04676547 196.9581884 106.0625 199.4375 C106.07087891 200.14455078 106.07925781 200.85160156 106.08789062 201.58007812 C106.09653588 203.38693559 106.05220011 205.19387603 106 207 C105 208 105 208 103.23712826 208.12304783 C102.46374394 208.12212604 101.69035963 208.12120424 100.89353943 208.12025452 C100.00867859 208.12162918 99.12381775 208.12300385 98.21214294 208.12442017 C97.23391068 208.12082489 96.25567841 208.11722961 95.24780273 208.11352539 C94.2235318 208.11367142 93.19926086 208.11381744 92.14395142 208.1139679 C88.74047771 208.11326828 85.33705796 208.10547363 81.93359375 208.09765625 C79.58089732 208.09579224 77.2282005 208.09436826 74.87550354 208.09336853 C68.66943295 208.08954199 62.4633856 208.07971055 56.25732422 208.06866455 C49.93001622 208.05845334 43.60270448 208.05387154 37.27539062 208.04882812 C24.85025018 208.0380884 12.42512702 208.02101036 0 208 C0 202.72 0 197.44 0 192 C7.6875 190.3125 7.6875 190.3125 10.08081055 189.81762695 C15.0012208 188.65984677 17.81539013 187.12994861 21 183 C22.68641988 178.79622127 23.25202166 175.26508819 23.26069641 170.75161743 C23.27132362 168.9012664 23.27132362 168.9012664 23.28216553 167.01353455 C23.27987205 165.65957605 23.2773624 164.3056179 23.2746582 162.95166016 C23.27900886 161.51549515 23.28419319 160.07933247 23.29014587 158.64317322 C23.30350982 154.75259331 23.3041174 150.8621107 23.30158257 146.97151232 C23.30051098 143.71866274 23.30540109 140.46583269 23.310188 137.2129873 C23.32127441 129.53585681 23.32172562 121.85877525 23.31567383 114.18164062 C23.30963549 106.27339082 23.32194343 98.365319 23.3432439 90.45709956 C23.3608835 83.65689832 23.3668575 76.85675362 23.36360615 70.05653036 C23.36179674 65.99972084 23.36439514 61.94303826 23.37832069 57.88624954 C23.39093273 54.06944395 23.38892327 50.2529149 23.37590981 46.43611336 C23.37355171 45.03976789 23.37625112 43.64340275 23.38453293 42.24707985 C23.42520316 34.85370965 23.34613378 28.68366396 20 22 C16.28430758 18.79909268 11.90590003 18.13970175 7.1875 17.3125 C3.6296875 16.6628125 3.6296875 16.6628125 0 16 C0 10.72 0 5.44 0 0 Z " fill="#010101" transform="translate(11,10)"/>
<path d="M0 0 C1.07314453 -0.02449219 2.14628906 -0.04898437 3.25195312 -0.07421875 C13.79042106 -0.1124709 23.40627135 2.513631 31.328125 9.76171875 C41.06209037 19.91355637 42.29546787 33.17221585 42.08984375 46.48828125 C41.70795118 56.3015903 38.79700599 65.30965482 31.8125 72.375 C19.42923303 83.82418433 3.70450985 84.70872055 -12.375 84.5 C-13.72199847 84.4899393 -15.06900431 84.48081897 -16.41601562 84.47265625 C-19.67337021 84.44930604 -22.93033549 84.4165577 -26.1875 84.375 C-26.25719384 75.38633845 -26.31040926 66.39777078 -26.34293652 57.4088974 C-26.35855268 53.23441482 -26.37971633 49.06011793 -26.41381836 44.88574219 C-26.44655713 40.85272918 -26.46438343 36.81989412 -26.47213173 32.78675842 C-26.47764931 31.25266217 -26.48842355 29.71857499 -26.50469017 28.18455505 C-26.69002751 9.97219042 -26.69002751 9.97219042 -20.875 4 C-14.14102236 -0.07170741 -7.66365065 0.00904266 0 0 Z " fill="#FDFDFD" transform="translate(114.1875,24.625)"/>
</svg>
